<svg version="1.1" id="Layer_1" xmlns="http://www.w3.org/2000/svg" xmlns:xlink="http://www.w3.org/1999/xlink" x="0px" y="0px"
	 width="100%" viewBox="0 0 1052 257" enable-background="new 0 0 1052 257" xml:space="preserve">
<path fill="#FEFEFE" opacity="1.000000" stroke="none" 
	d="
M769.000000,258.000000 
	C512.666687,258.000000 256.833435,258.000000 1.000103,258.000000 
	C1.000069,172.333389 1.000069,86.666786 1.000034,1.000138 
	C351.666534,1.000092 702.333069,1.000092 1052.999756,1.000046 
	C1052.999756,86.666527 1052.999756,172.333054 1052.999878,257.999786 
	C958.500000,258.000000 864.000000,258.000000 769.000000,258.000000 
M104.952721,203.891144 
	C105.274956,203.811951 105.597191,203.732758 105.919426,203.653564 
	C105.626724,203.422638 105.334030,203.191696 105.014717,202.419174 
	C104.735291,202.220779 104.455856,202.022400 103.940224,201.159424 
	C99.430214,195.796967 98.174240,189.751968 99.894302,182.963547 
	C102.623604,172.192062 109.692207,164.580887 118.184441,158.179153 
	C134.493896,145.884537 153.177216,139.121353 173.187912,136.176163 
	C187.313797,134.097092 201.442017,134.461365 214.913803,140.138229 
	C227.394440,145.397430 232.314728,153.445404 231.091034,166.163818 
	C231.077148,166.308167 231.474991,166.492126 231.681351,166.656693 
	C239.694199,152.719910 237.014343,139.593567 223.316376,131.643234 
	C216.862320,127.897285 209.275650,125.107986 201.901672,124.113510 
	C169.452042,119.737221 139.778931,127.971779 113.254074,146.757797 
	C106.352562,151.645721 100.145638,158.201813 95.300507,165.161789 
	C85.407700,179.372726 88.959541,193.518356 103.789246,203.014206 
	C104.017860,203.242889 104.293846,203.356628 104.952721,203.891144 
M721.503967,94.499786 
	C721.503967,109.614738 721.503967,124.729691 721.503967,139.844650 
	C721.093018,139.885834 720.682129,139.927002 720.271179,139.968185 
	C719.842285,138.428299 719.398560,136.892380 718.986816,135.347916 
	C713.382690,114.326431 707.818420,93.294121 702.103821,72.302742 
	C701.715942,70.877968 700.250305,68.709717 699.210449,68.665588 
	C691.786133,68.350471 684.342285,68.497406 676.772705,68.497406 
	C676.772705,110.655067 676.772705,152.213470 676.772705,193.760376 
	C682.657288,193.760376 688.261292,193.760376 694.164795,193.760376 
	C694.164795,164.015045 694.164795,134.508698 694.164795,105.002365 
	C694.464722,104.947746 694.764709,104.893127 695.064636,104.838516 
	C702.989929,134.553543 710.915161,164.268555 718.787720,193.785767 
	C725.793884,193.785767 732.236450,193.785767 738.820435,193.785767 
	C738.820435,152.016251 738.820435,110.463028 738.820435,68.803467 
	C733.028259,68.803467 727.461914,68.803467 721.504639,68.803467 
	C721.504639,77.240746 721.504639,85.370262 721.503967,94.499786 
M614.394836,120.488571 
	C614.090088,121.018028 613.791016,122.005821 613.479797,122.009682 
	C606.402344,122.097122 599.323608,122.076965 591.851074,122.076965 
	C591.851074,103.920235 591.851074,86.356499 591.851074,68.748932 
	C585.178406,68.748932 578.919922,68.748932 572.493652,68.748932 
	C572.493652,110.571106 572.493652,152.110992 572.493652,193.685608 
	C579.147095,193.685608 585.531311,193.685608 592.228821,193.685608 
	C592.228821,175.767563 592.228821,158.176590 592.228821,140.566559 
	C599.749939,140.566559 606.943054,140.566559 614.539185,140.566559 
	C614.539185,158.540955 614.539185,176.138550 614.539185,193.760986 
	C621.377686,193.760986 627.798035,193.760986 634.302002,193.760986 
	C634.302002,151.972534 634.302002,110.437752 634.302002,68.794907 
	C627.585388,68.794907 621.192383,68.794907 614.409058,68.794907 
	C614.409058,85.909874 614.409058,102.699936 614.394836,120.488571 
M371.463165,70.799034 
	C362.344086,75.792419 358.338745,84.201134 358.161774,93.885277 
	C357.711700,118.513252 357.708466,143.160477 358.137756,167.789337 
	C358.401794,182.937897 367.425598,192.694794 381.698608,194.931549 
	C402.837646,198.244308 417.281616,186.451385 417.778076,165.063705 
	C418.106354,150.921494 417.965637,136.765091 417.840515,122.616760 
	C417.747925,112.143257 417.819611,101.632668 416.949127,91.211182 
	C415.973053,79.524864 408.722900,71.097229 398.381317,68.406883 
	C389.432983,66.078995 380.598083,66.407486 371.463165,70.799034 
M756.011841,79.626884 
	C754.632629,84.195213 752.127380,88.747345 752.061401,93.334549 
	C751.697571,118.622787 751.763306,143.921524 752.058655,169.212265 
	C752.146484,176.732224 754.935303,183.733170 760.991455,188.568192 
	C771.330078,196.822128 783.148560,197.209167 794.962769,192.811752 
	C805.585999,188.857590 810.795593,179.965546 810.990417,169.068161 
	C811.436523,144.121017 811.471558,119.153496 810.981323,94.207848 
	C810.713989,80.600655 803.370300,71.479660 792.156067,68.379601 
	C777.534546,64.337639 764.203369,68.302254 756.011841,79.626884 
M486.465881,145.940170 
	C482.348846,120.191010 478.231842,94.441841 474.120697,68.729401 
	C464.214905,68.729401 454.786041,68.729401 445.180695,68.729401 
	C438.490723,110.518127 431.834686,152.094788 425.161072,193.781189 
	C431.453400,193.781189 437.218536,193.781189 443.202942,193.781189 
	C444.413849,186.143723 445.596375,178.685272 446.743530,171.449890 
	C455.216431,171.449890 462.988342,171.449890 470.819763,171.449890 
	C471.998535,179.049042 473.137238,186.389786 474.284821,193.788086 
	C481.006775,193.788086 487.446564,193.788086 494.098785,193.788086 
	C491.600311,177.959137 489.140381,162.374634 486.465881,145.940170 
M953.218750,194.002197 
	C953.748230,192.441833 954.937439,190.777802 954.710938,189.336197 
	C948.541260,150.065231 942.242798,110.814415 935.857361,71.577866 
	C935.674316,70.453125 934.332153,68.651855 933.495178,68.631744 
	C924.552551,68.416878 915.602783,68.498169 906.527893,68.498169 
	C899.796021,110.571144 893.155640,152.071976 886.500854,193.663055 
	C892.816895,193.663055 898.722961,193.663055 904.566833,193.663055 
	C905.767029,185.990982 906.913574,178.661499 908.048523,171.406281 
	C916.338440,171.406281 924.107300,171.406281 932.130127,171.406281 
	C933.295349,178.945984 934.432373,186.303055 935.622681,194.004822 
	C941.343994,194.004822 946.807068,194.004822 953.218750,194.002197 
M880.611389,110.153641 
	C882.709167,96.384605 884.807007,82.615570 886.924072,68.720032 
	C880.739319,68.720032 874.973877,68.720032 868.872803,68.720032 
	C863.980713,102.154442 859.114990,135.408478 854.249268,168.662521 
	C853.942078,168.616318 853.634888,168.570129 853.327698,168.523926 
	C848.485474,135.289108 843.643188,102.054283 838.791626,68.755524 
	C832.084778,68.755524 825.672302,68.755524 818.892761,68.755524 
	C825.350769,110.616776 831.758972,152.154663 838.167114,193.692719 
	C848.188599,193.692719 857.941467,193.692719 867.695129,193.692719 
	C871.959229,165.926025 876.176392,138.464859 880.611389,110.153641 
M316.027710,176.932373 
	C309.919586,174.684311 308.429047,172.298401 308.400848,163.601959 
	C308.330017,141.779877 308.359100,119.957375 308.412384,98.135185 
	C308.417633,95.987915 308.218018,93.427620 309.261963,91.792160 
	C310.826691,89.340912 313.061859,86.547264 315.624847,85.649986 
	C322.917145,83.097008 328.234253,87.417160 328.779572,95.936043 
	C329.092621,100.826027 328.836334,105.752449 328.836334,110.626587 
	C335.441223,110.626587 341.211517,110.626587 347.985931,110.626587 
	C347.395599,102.951653 347.488007,95.425385 346.109100,88.179085 
	C343.778687,75.932396 336.404724,69.428276 324.276672,67.441917 
	C304.865570,64.262718 289.697449,74.424232 289.158783,92.519592 
	C288.395905,118.146591 288.604614,143.822250 289.157593,169.460739 
	C289.453583,183.182480 297.483917,191.695831 310.584015,194.636475 
	C324.537506,197.768677 338.405609,192.399124 343.786133,181.449661 
	C349.157623,170.518616 347.213776,158.845657 347.438293,147.390976 
	C340.900421,147.390976 335.123840,147.390976 328.866943,147.390976 
	C328.866943,153.737793 329.066315,159.867599 328.818268,165.979263 
	C328.480957,174.291809 325.278961,177.093002 316.027710,176.932373 
M544.067749,69.156570 
	C541.808777,68.597435 539.574585,67.893448 537.286987,67.501701 
	C515.943481,63.846676 501.708405,75.690651 501.523804,97.279785 
	C501.444061,106.605156 501.471497,115.932098 501.530212,125.257835 
	C501.623505,140.075470 501.343567,154.913544 502.044128,169.703995 
	C502.697876,183.506439 510.488922,191.913559 523.622498,194.709351 
	C540.066711,198.209885 555.434387,190.587540 558.512756,176.117905 
	C560.481262,166.864655 560.147827,157.121643 560.852783,147.511383 
	C553.748352,147.511383 547.867126,147.511383 541.354492,147.511383 
	C541.354492,154.670563 541.802612,161.519501 541.228394,168.281601 
	C540.655029,175.033066 536.559753,177.759003 529.825439,177.031357 
	C524.310425,176.435455 521.541138,173.196396 521.277588,166.106201 
	C520.999329,158.621979 521.165710,151.120743 521.161560,143.626938 
	C521.153076,128.305511 521.106262,112.983788 521.194641,97.662872 
	C521.220825,93.117653 521.598572,88.457977 526.439697,86.125481 
	C533.281128,82.829163 540.216553,86.355820 541.207581,93.916878 
	C541.929443,99.424110 541.809875,105.041618 542.064758,110.596420 
	C548.275146,110.596420 554.034851,110.596420 560.657471,110.596420 
	C560.151794,103.071785 560.092834,95.767220 559.068909,88.600533 
	C557.816467,79.834404 552.976257,73.288124 544.067749,69.156570 
M162.747650,106.069977 
	C175.187820,105.695152 187.725235,104.179756 200.043869,105.230194 
	C215.940948,106.585770 230.451309,112.066841 238.639206,127.802193 
	C240.889618,117.196404 235.936615,109.889923 228.289902,104.080635 
	C216.637543,95.228241 202.734726,92.896515 188.708923,92.321587 
	C168.171692,91.479744 148.221420,95.373711 129.169296,103.008209 
	C109.451759,110.909340 91.482582,121.471169 79.060814,139.510925 
	C70.136505,152.471420 70.086761,164.736908 78.527603,177.069244 
	C78.527603,173.179291 77.842964,168.615387 78.653145,164.334366 
	C81.319153,150.247055 90.408577,140.341125 101.385651,132.052475 
	C119.389412,118.458069 139.836472,110.403656 162.747650,106.069977 
M158.030838,158.532822 
	C153.108810,160.536392 148.059586,162.278442 143.291031,164.597580 
	C133.129822,169.539307 124.046196,175.902283 118.316765,186.024612 
	C114.111435,193.454285 114.539261,201.171066 119.233658,207.080856 
	C123.859596,212.904419 136.667007,217.958313 142.949524,216.297546 
	C142.244492,215.925476 141.715881,215.508743 141.118927,215.351669 
	C126.773415,211.577103 121.626099,199.018845 133.533142,186.045197 
	C144.570969,174.018631 159.040695,168.806641 174.543747,166.344284 
	C184.599594,164.747086 194.865479,164.795319 204.307648,169.719543 
	C213.159912,174.336121 215.546402,182.249893 210.963837,191.071716 
	C209.846191,193.223282 208.594421,195.305145 207.404343,197.419067 
	C207.759720,197.673248 208.115097,197.927429 208.470474,198.181595 
	C211.256897,194.989487 214.385193,192.032349 216.769379,188.563751 
	C226.105789,174.980789 221.837799,162.629562 206.335541,157.202057 
	C190.314514,151.592957 174.539627,154.031540 158.030838,158.532822 
M163.051239,66.615089 
	C145.656815,68.228500 129.005814,72.736282 113.237839,80.166168 
	C96.812935,87.905609 81.766663,97.588943 71.537872,113.201065 
	C66.439629,120.982468 63.838608,129.393692 65.966896,138.983994 
	C66.563782,138.803894 66.846794,138.412720 66.948761,137.979004 
	C70.297585,123.734894 79.323395,113.418503 90.622269,105.043198 
	C121.316696,82.290909 155.930649,72.773743 193.896271,76.206940 
	C206.084076,77.309067 217.638519,81.188797 227.176285,89.517593 
	C227.799805,90.062080 228.536331,90.477150 229.620560,91.230545 
	C228.031570,83.852150 221.134735,76.816559 211.926849,72.733833 
	C196.558273,65.919502 180.387222,65.214256 163.051239,66.615089 
M193.191116,202.683670 
	C196.480469,199.033112 199.862762,195.176224 197.838440,189.874634 
	C195.888809,184.768738 191.108612,183.326935 186.145416,182.700226 
	C173.085693,181.051178 161.486908,184.520706 151.323547,192.831329 
	C147.325378,196.100632 144.842453,200.319534 146.080795,205.489777 
	C147.286667,210.524368 151.913025,212.138199 156.367676,212.976013 
	C169.982620,215.536713 181.937485,211.470291 193.191116,202.683670 
M137.367935,58.707699 
	C159.236465,53.249020 181.050110,52.483833 202.912094,59.620132 
	C200.832306,57.704811 198.752838,55.788639 196.339447,55.165363 
	C187.539291,52.892666 178.683975,49.665779 169.747665,49.302479 
	C140.506409,48.113705 114.029282,57.080605 90.234810,73.959099 
	C81.296547,80.299416 74.098839,89.952530 71.206879,99.623520 
	C88.482529,76.946022 111.239250,65.793831 137.367935,58.707699 
M133.070236,45.499706 
	C126.095428,47.226086 119.175957,49.086285 113.417496,53.781525 
	C122.196663,51.002254 130.975830,48.222984 139.754990,45.443714 
	C139.724106,45.247795 139.693237,45.051880 139.662354,44.855961 
	C137.732330,44.977604 135.802322,45.099243 133.070236,45.499706 
z"/>
<path fill="#020202" opacity="1.000000" stroke="none" 
	d="
M721.504272,93.999779 
	C721.504639,85.370262 721.504639,77.240746 721.504639,68.803467 
	C727.461914,68.803467 733.028259,68.803467 738.820435,68.803467 
	C738.820435,110.463028 738.820435,152.016251 738.820435,193.785767 
	C732.236450,193.785767 725.793884,193.785767 718.787720,193.785767 
	C710.915161,164.268555 702.989929,134.553543 695.064636,104.838516 
	C694.764709,104.893127 694.464722,104.947746 694.164795,105.002365 
	C694.164795,134.508698 694.164795,164.015045 694.164795,193.760376 
	C688.261292,193.760376 682.657288,193.760376 676.772705,193.760376 
	C676.772705,152.213470 676.772705,110.655067 676.772705,68.497406 
	C684.342285,68.497406 691.786133,68.350471 699.210449,68.665588 
	C700.250305,68.709717 701.715942,70.877968 702.103821,72.302742 
	C707.818420,93.294121 713.382690,114.326431 718.986816,135.347916 
	C719.398560,136.892380 719.842285,138.428299 720.271179,139.968185 
	C720.682129,139.927002 721.093018,139.885834 721.503967,139.844650 
	C721.503967,124.729691 721.503967,109.614738 721.504272,93.999779 
z"/>
<path fill="#080808" opacity="1.000000" stroke="none" 
	d="
M614.401978,119.989288 
	C614.409058,102.699936 614.409058,85.909874 614.409058,68.794907 
	C621.192383,68.794907 627.585388,68.794907 634.302002,68.794907 
	C634.302002,110.437752 634.302002,151.972534 634.302002,193.760986 
	C627.798035,193.760986 621.377686,193.760986 614.539185,193.760986 
	C614.539185,176.138550 614.539185,158.540955 614.539185,140.566559 
	C606.943054,140.566559 599.749939,140.566559 592.228821,140.566559 
	C592.228821,158.176590 592.228821,175.767563 592.228821,193.685608 
	C585.531311,193.685608 579.147095,193.685608 572.493652,193.685608 
	C572.493652,152.110992 572.493652,110.571106 572.493652,68.748932 
	C578.919922,68.748932 585.178406,68.748932 591.851074,68.748932 
	C591.851074,86.356499 591.851074,103.920235 591.851074,122.076965 
	C599.323608,122.076965 606.402344,122.097122 613.479797,122.009682 
	C613.791016,122.005821 614.090088,121.018028 614.401978,119.989288 
z"/>
<path fill="#040404" opacity="1.000000" stroke="none" 
	d="
M371.767029,70.572372 
	C380.598083,66.407486 389.432983,66.078995 398.381317,68.406883 
	C408.722900,71.097229 415.973053,79.524864 416.949127,91.211182 
	C417.819611,101.632668 417.747925,112.143257 417.840515,122.616760 
	C417.965637,136.765091 418.106354,150.921494 417.778076,165.063705 
	C417.281616,186.451385 402.837646,198.244308 381.698608,194.931549 
	C367.425598,192.694794 358.401794,182.937897 358.137756,167.789337 
	C357.708466,143.160477 357.711700,118.513252 358.161774,93.885277 
	C358.338745,84.201134 362.344086,75.792419 371.767029,70.572372 
M377.712128,151.499298 
	C377.775818,156.984772 377.608948,162.485123 377.962189,167.951889 
	C378.393829,174.632614 382.823578,178.028885 389.427277,177.217285 
	C394.797333,176.557281 397.835693,172.863510 397.955933,166.217850 
	C398.121307,157.075287 398.025909,147.927841 398.026123,138.782486 
	C398.026459,124.814964 398.098053,110.846581 397.956818,96.880409 
	C397.910767,92.327576 397.266876,87.797821 392.071167,85.849373 
	C384.052185,82.842194 377.913757,87.057648 377.813141,96.126945 
	C377.612091,114.249290 377.727448,132.375153 377.712128,151.499298 
z"/>
<path fill="#030303" opacity="1.000000" stroke="none" 
	d="
M756.211304,79.318451 
	C764.203369,68.302254 777.534546,64.337639 792.156067,68.379601 
	C803.370300,71.479660 810.713989,80.600655 810.981323,94.207848 
	C811.471558,119.153496 811.436523,144.121017 810.990417,169.068161 
	C810.795593,179.965546 805.585999,188.857590 794.962769,192.811752 
	C783.148560,197.209167 771.330078,196.822128 760.991455,188.568192 
	C754.935303,183.733170 752.146484,176.732224 752.058655,169.212265 
	C751.763306,143.921524 751.697571,118.622787 752.061401,93.334549 
	C752.127380,88.747345 754.632629,84.195213 756.211304,79.318451 
M771.254822,111.501892 
	C771.254883,128.308182 771.226318,145.114563 771.284607,161.920639 
	C771.293762,164.567093 771.457581,167.259384 771.968750,169.847748 
	C772.928650,174.707947 776.141907,177.216187 781.093201,177.390533 
	C786.301697,177.573914 789.884583,175.153549 791.036926,170.233658 
	C791.636169,167.675079 791.830200,164.972366 791.841125,162.333252 
	C791.909973,145.693619 791.880981,129.053589 791.873413,112.413689 
	C791.870972,107.089355 792.041687,101.754387 791.766968,96.443230 
	C791.358704,88.550987 787.977295,84.965416 781.491089,85.002121 
	C774.984436,85.038940 771.639221,88.716057 771.321228,96.527489 
	C771.131897,101.179245 771.265991,105.844170 771.254822,111.501892 
z"/>
<path fill="#040404" opacity="1.000000" stroke="none" 
	d="
M486.573181,146.365143 
	C489.140381,162.374634 491.600311,177.959137 494.098785,193.788086 
	C487.446564,193.788086 481.006775,193.788086 474.284821,193.788086 
	C473.137238,186.389786 471.998535,179.049042 470.819763,171.449890 
	C462.988342,171.449890 455.216431,171.449890 446.743530,171.449890 
	C445.596375,178.685272 444.413849,186.143723 443.202942,193.781189 
	C437.218536,193.781189 431.453400,193.781189 425.161072,193.781189 
	C431.834686,152.094788 438.490723,110.518127 445.180695,68.729401 
	C454.786041,68.729401 464.214905,68.729401 474.120697,68.729401 
	C478.231842,94.441841 482.348846,120.191010 486.573181,146.365143 
M462.012268,112.399010 
	C461.046631,106.012108 460.080994,99.625214 459.115356,93.238312 
	C458.778442,93.274239 458.441528,93.310173 458.104614,93.346100 
	C455.148102,113.470055 452.191589,133.594009 449.207336,153.906738 
	C455.681610,153.906738 461.754608,153.906738 468.136627,153.906738 
	C466.092621,140.161209 464.093750,126.719208 462.012268,112.399010 
z"/>
<path fill="#040404" opacity="1.000000" stroke="none" 
	d="
M952.744507,194.003510 
	C946.807068,194.004822 941.343994,194.004822 935.622681,194.004822 
	C934.432373,186.303055 933.295349,178.945984 932.130127,171.406281 
	C924.107300,171.406281 916.338440,171.406281 908.048523,171.406281 
	C906.913574,178.661499 905.767029,185.990982 904.566833,193.663055 
	C898.722961,193.663055 892.816895,193.663055 886.500854,193.663055 
	C893.155640,152.071976 899.796021,110.571144 906.527893,68.498169 
	C915.602783,68.498169 924.552551,68.416878 933.495178,68.631744 
	C934.332153,68.651855 935.674316,70.453125 935.857361,71.577866 
	C942.242798,110.814415 948.541260,150.065231 954.710938,189.336197 
	C954.937439,190.777802 953.748230,192.441833 952.744507,194.003510 
M917.756836,105.163544 
	C915.351501,121.347198 912.946167,137.530853 910.505554,153.951950 
	C917.064453,153.951950 922.979065,153.951950 929.452148,153.951950 
	C926.472107,133.861206 923.536560,114.070099 920.600952,94.278999 
	C920.153503,94.336586 919.706116,94.394180 919.258667,94.451767 
	C918.798462,97.733711 918.338257,101.015656 917.756836,105.163544 
z"/>
<path fill="#040404" opacity="1.000000" stroke="none" 
	d="
M880.502502,110.578659 
	C876.176392,138.464859 871.959229,165.926025 867.695129,193.692719 
	C857.941467,193.692719 848.188599,193.692719 838.167114,193.692719 
	C831.758972,152.154663 825.350769,110.616776 818.892761,68.755524 
	C825.672302,68.755524 832.084778,68.755524 838.791626,68.755524 
	C843.643188,102.054283 848.485474,135.289108 853.327698,168.523926 
	C853.634888,168.570129 853.942078,168.616318 854.249268,168.662521 
	C859.114990,135.408478 863.980713,102.154442 868.872803,68.720032 
	C874.973877,68.720032 880.739319,68.720032 886.924072,68.720032 
	C884.807007,82.615570 882.709167,96.384605 880.502502,110.578659 
z"/>
<path fill="#030303" opacity="1.000000" stroke="none" 
	d="
M316.441467,176.974670 
	C325.278961,177.093002 328.480957,174.291809 328.818268,165.979263 
	C329.066315,159.867599 328.866943,153.737793 328.866943,147.390976 
	C335.123840,147.390976 340.900421,147.390976 347.438293,147.390976 
	C347.213776,158.845657 349.157623,170.518616 343.786133,181.449661 
	C338.405609,192.399124 324.537506,197.768677 310.584015,194.636475 
	C297.483917,191.695831 289.453583,183.182480 289.157593,169.460739 
	C288.604614,143.822250 288.395905,118.146591 289.158783,92.519592 
	C289.697449,74.424232 304.865570,64.262718 324.276672,67.441917 
	C336.404724,69.428276 343.778687,75.932396 346.109100,88.179085 
	C347.488007,95.425385 347.395599,102.951653 347.985931,110.626587 
	C341.211517,110.626587 335.441223,110.626587 328.836334,110.626587 
	C328.836334,105.752449 329.092621,100.826027 328.779572,95.936043 
	C328.234253,87.417160 322.917145,83.097008 315.624847,85.649986 
	C313.061859,86.547264 310.826691,89.340912 309.261963,91.792160 
	C308.218018,93.427620 308.417633,95.987915 308.412384,98.135185 
	C308.359100,119.957375 308.330017,141.779877 308.400848,163.601959 
	C308.429047,172.298401 309.919586,174.684311 316.441467,176.974670 
z"/>
<path fill="#020202" opacity="1.000000" stroke="none" 
	d="
M544.406372,69.340614 
	C552.976257,73.288124 557.816467,79.834404 559.068909,88.600533 
	C560.092834,95.767220 560.151794,103.071785 560.657471,110.596420 
	C554.034851,110.596420 548.275146,110.596420 542.064758,110.596420 
	C541.809875,105.041618 541.929443,99.424110 541.207581,93.916878 
	C540.216553,86.355820 533.281128,82.829163 526.439697,86.125481 
	C521.598572,88.457977 521.220825,93.117653 521.194641,97.662872 
	C521.106262,112.983788 521.153076,128.305511 521.161560,143.626938 
	C521.165710,151.120743 520.999329,158.621979 521.277588,166.106201 
	C521.541138,173.196396 524.310425,176.435455 529.825439,177.031357 
	C536.559753,177.759003 540.655029,175.033066 541.228394,168.281601 
	C541.802612,161.519501 541.354492,154.670563 541.354492,147.511383 
	C547.867126,147.511383 553.748352,147.511383 560.852783,147.511383 
	C560.147827,157.121643 560.481262,166.864655 558.512756,176.117905 
	C555.434387,190.587540 540.066711,198.209885 523.622498,194.709351 
	C510.488922,191.913559 502.697876,183.506439 502.044128,169.703995 
	C501.343567,154.913544 501.623505,140.075470 501.530212,125.257835 
	C501.471497,115.932098 501.444061,106.605156 501.523804,97.279785 
	C501.708405,75.690651 515.943481,63.846676 537.286987,67.501701 
	C539.574585,67.893448 541.808777,68.597435 544.406372,69.340614 
z"/>
<path fill="#070707" opacity="1.000000" stroke="none" 
	d="
M162.318634,106.131851 
	C139.836472,110.403656 119.389412,118.458069 101.385651,132.052475 
	C90.408577,140.341125 81.319153,150.247055 78.653145,164.334366 
	C77.842964,168.615387 78.527603,173.179291 78.527603,177.069244 
	C70.086761,164.736908 70.136505,152.471420 79.060814,139.510925 
	C91.482582,121.471169 109.451759,110.909340 129.169296,103.008209 
	C148.221420,95.373711 168.171692,91.479744 188.708923,92.321587 
	C202.734726,92.896515 216.637543,95.228241 228.289902,104.080635 
	C235.936615,109.889923 240.889618,117.196404 238.639206,127.802193 
	C230.451309,112.066841 215.940948,106.585770 200.043869,105.230194 
	C187.725235,104.179756 175.187820,105.695152 162.318634,106.131851 
z"/>
<path fill="#060606" opacity="1.000000" stroke="none" 
	d="
M103.493942,202.665359 
	C88.959541,193.518356 85.407700,179.372726 95.300507,165.161789 
	C100.145638,158.201813 106.352562,151.645721 113.254074,146.757797 
	C139.778931,127.971779 169.452042,119.737221 201.901672,124.113510 
	C209.275650,125.107986 216.862320,127.897285 223.316376,131.643234 
	C237.014343,139.593567 239.694199,152.719910 231.680984,166.657135 
	C231.474991,166.492126 231.077148,166.308167 231.091034,166.163818 
	C232.314728,153.445404 227.394440,145.397430 214.913803,140.138229 
	C201.442017,134.461365 187.313797,134.097092 173.187912,136.176163 
	C153.177216,139.121353 134.493896,145.884537 118.184441,158.179153 
	C109.692207,164.580887 102.623604,172.192062 99.894302,182.963547 
	C98.174240,189.751968 99.430214,195.796967 103.879242,201.695190 
	C103.710152,202.375748 103.602043,202.520554 103.493942,202.665359 
z"/>
<path fill="#080808" opacity="1.000000" stroke="none" 
	d="
M158.398590,158.374207 
	C174.539627,154.031540 190.314514,151.592957 206.335541,157.202057 
	C221.837799,162.629562 226.105789,174.980789 216.769379,188.563751 
	C214.385193,192.032349 211.256897,194.989487 208.470474,198.181595 
	C208.115097,197.927429 207.759720,197.673248 207.404343,197.419067 
	C208.594421,195.305145 209.846191,193.223282 210.963837,191.071716 
	C215.546402,182.249893 213.159912,174.336121 204.307648,169.719543 
	C194.865479,164.795319 184.599594,164.747086 174.543747,166.344284 
	C159.040695,168.806641 144.570969,174.018631 133.533142,186.045197 
	C121.626099,199.018845 126.773415,211.577103 141.118927,215.351669 
	C141.715881,215.508743 142.244492,215.925476 142.949524,216.297546 
	C136.667007,217.958313 123.859596,212.904419 119.233658,207.080856 
	C114.539261,201.171066 114.111435,193.454285 118.316765,186.024612 
	C124.046196,175.902283 133.129822,169.539307 143.291031,164.597580 
	C148.059586,162.278442 153.108810,160.536392 158.398590,158.374207 
z"/>
<path fill="#080808" opacity="1.000000" stroke="none" 
	d="
M163.506653,66.546753 
	C180.387222,65.214256 196.558273,65.919502 211.926849,72.733833 
	C221.134735,76.816559 228.031570,83.852150 229.620560,91.230545 
	C228.536331,90.477150 227.799805,90.062080 227.176285,89.517593 
	C217.638519,81.188797 206.084076,77.309067 193.896271,76.206940 
	C155.930649,72.773743 121.316696,82.290909 90.622269,105.043198 
	C79.323395,113.418503 70.297585,123.734894 66.948761,137.979004 
	C66.846794,138.412720 66.563782,138.803894 65.966896,138.983994 
	C63.838608,129.393692 66.439629,120.982468 71.537872,113.201065 
	C81.766663,97.588943 96.812935,87.905609 113.237839,80.166168 
	C129.005814,72.736282 145.656815,68.228500 163.506653,66.546753 
z"/>
<path fill="#080808" opacity="1.000000" stroke="none" 
	d="
M192.949463,202.947754 
	C181.937485,211.470291 169.982620,215.536713 156.367676,212.976013 
	C151.913025,212.138199 147.286667,210.524368 146.080795,205.489777 
	C144.842453,200.319534 147.325378,196.100632 151.323547,192.831329 
	C161.486908,184.520706 173.085693,181.051178 186.145416,182.700226 
	C191.108612,183.326935 195.888809,184.768738 197.838440,189.874634 
	C199.862762,195.176224 196.480469,199.033112 192.949463,202.947754 
M166.952255,194.161011 
	C165.404739,195.109802 163.404282,195.727036 162.412201,197.082382 
	C160.782104,199.309357 158.210373,202.748184 158.942078,204.340210 
	C159.943604,206.519241 163.526535,208.300827 166.247849,208.741699 
	C172.568741,209.765732 178.532242,207.716293 183.342468,203.609100 
	C185.196014,202.026459 186.890457,198.770782 186.563141,196.591980 
	C186.302307,194.855545 182.909958,192.452881 180.822052,192.364227 
	C176.478622,192.179810 172.078369,193.333405 166.952255,194.161011 
z"/>
<path fill="#101010" opacity="1.000000" stroke="none" 
	d="
M136.966003,58.805264 
	C111.239250,65.793831 88.482529,76.946022 71.206879,99.623520 
	C74.098839,89.952530 81.296547,80.299416 90.234810,73.959099 
	C114.029282,57.080605 140.506409,48.113705 169.747665,49.302479 
	C178.683975,49.665779 187.539291,52.892666 196.339447,55.165363 
	C198.752838,55.788639 200.832306,57.704811 202.912094,59.620132 
	C181.050110,52.483833 159.236465,53.249020 136.966003,58.805264 
z"/>
<path fill="#2A2A2A" opacity="1.000000" stroke="none" 
	d="
M133.471283,45.360294 
	C135.802322,45.099243 137.732330,44.977604 139.662354,44.855961 
	C139.693237,45.051880 139.724106,45.247795 139.754990,45.443714 
	C130.975830,48.222984 122.196663,51.002254 113.417496,53.781525 
	C119.175957,49.086285 126.095428,47.226086 133.471283,45.360294 
z"/>
<path fill="#060606" opacity="1.000000" stroke="none" 
	d="
M104.617188,203.355438 
	C104.293846,203.356628 104.017860,203.242889 103.641594,202.839783 
	C103.602043,202.520554 103.710152,202.375748 103.997337,202.027496 
	C104.455856,202.022400 104.735291,202.220779 104.922485,202.789185 
	C104.830261,203.159195 104.617188,203.355438 104.617188,203.355438 
z"/>
<path fill="#060606" opacity="1.000000" stroke="none" 
	d="
M104.935791,203.059982 
	C105.334030,203.191696 105.626724,203.422638 105.919426,203.653564 
	C105.597191,203.732758 105.274956,203.811951 104.784958,203.623291 
	C104.617188,203.355438 104.830261,203.159195 104.935791,203.059982 
z"/>
<path fill="#FEFEFE" opacity="1.000000" stroke="none" 
	d="
M377.712097,150.999420 
	C377.727448,132.375153 377.612091,114.249290 377.813141,96.126945 
	C377.913757,87.057648 384.052185,82.842194 392.071167,85.849373 
	C397.266876,87.797821 397.910767,92.327576 397.956818,96.880409 
	C398.098053,110.846581 398.026459,124.814964 398.026123,138.782486 
	C398.025909,147.927841 398.121307,157.075287 397.955933,166.217850 
	C397.835693,172.863510 394.797333,176.557281 389.427277,177.217285 
	C382.823578,178.028885 378.393829,174.632614 377.962189,167.951889 
	C377.608948,162.485123 377.775818,156.984772 377.712097,150.999420 
z"/>
<path fill="#F8F8F8" opacity="1.000000" stroke="none" 
	d="
M771.254761,111.002533 
	C771.265991,105.844170 771.131897,101.179245 771.321228,96.527489 
	C771.639221,88.716057 774.984436,85.038940 781.491089,85.002121 
	C787.977295,84.965416 791.358704,88.550987 791.766968,96.443230 
	C792.041687,101.754387 791.870972,107.089355 791.873413,112.413689 
	C791.880981,129.053589 791.909973,145.693619 791.841125,162.333252 
	C791.830200,164.972366 791.636169,167.675079 791.036926,170.233658 
	C789.884583,175.153549 786.301697,177.573914 781.093201,177.390533 
	C776.141907,177.216187 772.928650,174.707947 771.968750,169.847748 
	C771.457581,167.259384 771.293762,164.567093 771.284607,161.920639 
	C771.226318,145.114563 771.254883,128.308182 771.254761,111.002533 
z"/>
<path fill="#F8F8F8" opacity="1.000000" stroke="none" 
	d="
M462.053589,112.838104 
	C464.093750,126.719208 466.092621,140.161209 468.136627,153.906738 
	C461.754608,153.906738 455.681610,153.906738 449.207336,153.906738 
	C452.191589,133.594009 455.148102,113.470055 458.104614,93.346100 
	C458.441528,93.310173 458.778442,93.274239 459.115356,93.238312 
	C460.080994,99.625214 461.046631,106.012108 462.053589,112.838104 
z"/>
<path fill="#F9F9F9" opacity="1.000000" stroke="none" 
	d="
M917.817383,104.730576 
	C918.338257,101.015656 918.798462,97.733711 919.258667,94.451767 
	C919.706116,94.394180 920.153503,94.336586 920.600952,94.278999 
	C923.536560,114.070099 926.472107,133.861206 929.452148,153.951950 
	C922.979065,153.951950 917.064453,153.951950 910.505554,153.951950 
	C912.946167,137.530853 915.351501,121.347198 917.817383,104.730576 
z"/>
<path fill="#F9F9F9" opacity="1.000000" stroke="none" 
	d="
M167.326874,194.049057 
	C172.078369,193.333405 176.478622,192.179810 180.822052,192.364227 
	C182.909958,192.452881 186.302307,194.855545 186.563141,196.591980 
	C186.890457,198.770782 185.196014,202.026459 183.342468,203.609100 
	C178.532242,207.716293 172.568741,209.765732 166.247849,208.741699 
	C163.526535,208.300827 159.943604,206.519241 158.942078,204.340210 
	C158.210373,202.748184 160.782104,199.309357 162.412201,197.082382 
	C163.404282,195.727036 165.404739,195.109802 167.326874,194.049057 
z"/>
</svg>